<?xml version="1.0" encoding="UTF-8" standalone="no"?>
<!-- Created with Inkscape (http://www.inkscape.org/) -->

<svg
   width="25.480932mm"
   height="19.577129mm"
   viewBox="0 0 25.480932 19.577129"
   version="1.1"
   id="svg5"
   xml:space="preserve"
   sodipodi:docname="logo.svg"
   inkscape:version="1.2.2 (732a01da63, 2022-12-09)"
   xmlns:inkscape="http://www.inkscape.org/namespaces/inkscape"
   xmlns:sodipodi="http://sodipodi.sourceforge.net/DTD/sodipodi-0.dtd"
   xmlns="http://www.w3.org/2000/svg"
   xmlns:svg="http://www.w3.org/2000/svg"><sodipodi:namedview
     id="namedview7"
     pagecolor="#ffffff"
     bordercolor="#000000"
     borderopacity="0.25"
     inkscape:showpageshadow="2"
     inkscape:pageopacity="0.0"
     inkscape:pagecheckerboard="0"
     inkscape:deskcolor="#d1d1d1"
     inkscape:document-units="mm"
     showgrid="false"
     showguides="true"
     inkscape:zoom="2"
     inkscape:cx="14"
     inkscape:cy="72.75"
     inkscape:window-width="1366"
     inkscape:window-height="705"
     inkscape:window-x="-8"
     inkscape:window-y="-8"
     inkscape:window-maximized="1"
     inkscape:current-layer="layer1" /><defs
     id="defs2" /><g
     inkscape:label="Capa 1"
     inkscape:groupmode="layer"
     id="layer1"
     transform="translate(-52.002501,-74.527234)"><path
       style="opacity:1;fill:#db2911;fill-opacity:1;stroke:none;stroke-width:0.264583"
       d="m 72.675667,81.938668 c -1.476058,1.610812 -5.434975,5.767624 -7.987109,6.901904 -2.639207,1.172983 -6.142504,2.642685 -9.480558,1.144116 -0.690945,-0.310186 -1.374564,-0.747504 -2.042253,-1.341003 0,0 1.035818,1.870849 3.346566,2.836519 0.01958,0.01823 0.03914,0.03626 0.05891,0.05426 -0.01919,-0.01784 -0.03831,-0.03575 -0.05736,-0.05374 0.0779,0.07242 0.156976,0.143576 0.237195,0.213424 0.01381,0.01204 0.02747,0.02422 0.04134,0.03617 0.162286,0.139795 0.329121,0.274227 0.500228,0.403076 0.01533,0.01155 0.0306,0.02317 0.04599,0.03462 0.170498,0.126917 0.345084,0.24825 0.523482,0.363802 0.01808,0.01171 0.03611,0.02356 0.05426,0.03514 0.179023,0.114087 0.36171,0.22232 0.547771,0.324528 0.01609,0.0089 0.03192,0.01811 0.04806,0.02687 0.187686,0.101646 0.378646,0.197127 0.572575,0.286288 0.0184,0.0085 0.03684,0.01696 0.05529,0.02532 0.193997,0.08805 0.390817,0.169742 0.590145,0.244947 0.01725,0.0065 0.03439,0.01323 0.05168,0.01964 0.202667,0.07498 0.407763,0.143232 0.614949,0.204638 0.01518,0.0045 0.03028,0.009 0.04548,0.01344 0.211859,0.06182 0.425751,0.116454 0.641304,0.163814 0.009,0.002 0.01788,0.0043 0.02687,0.0062 0.224326,0.04858 0.450292,0.08926 0.677478,0.121956 3.38e-4,4.9e-5 7.63e-4,-4.9e-5 0.001,0 0.224569,0.03212 0.450187,0.05642 0.676445,0.07286 0.0076,5.56e-4 0.01515,0.0015 0.02274,0.0021 0.0024,1.71e-4 0.0048,3.47e-4 0.0072,5.17e-4 0.228227,0.01611 0.456951,0.02421 0.685746,0.02429 0.215165,-4.89e-4 0.430257,-0.0081 0.644922,-0.02274 0.02648,-0.0018 0.05315,-0.0027 0.07958,-0.0047 0.204247,-0.01565 0.407953,-0.03771 0.610815,-0.06615 0.03116,-0.0043 0.06245,-0.0078 0.09354,-0.0124 0.197929,-0.02944 0.394909,-0.06494 0.590661,-0.106454 0.03743,-0.0079 0.07484,-0.01596 0.112138,-0.02429 0.189489,-0.04245 0.377677,-0.09053 0.564307,-0.144177 0.0418,-0.01199 0.08346,-0.02415 0.125057,-0.03669 0.182759,-0.05481 0.363875,-0.114954 0.543119,-0.180351 0.04327,-0.01587 0.08618,-0.03263 0.129191,-0.04909 0.176024,-0.06714 0.350075,-0.139342 0.521932,-0.216525 0.04422,-0.01992 0.08788,-0.04094 0.131775,-0.06149 0.166257,-0.07737 0.33031,-0.159396 0.49196,-0.245979 0.04804,-0.02589 0.09505,-0.05342 0.142627,-0.0801 0.15825,-0.08799 0.314028,-0.180354 0.467155,-0.276986 5.24e-4,-3.33e-4 0.0011,-7.66e-4 0.0016,-10e-4 0.04585,-0.02917 0.09056,-0.06 0.135909,-0.08992 0.132936,-0.08758 0.263718,-0.178381 0.392224,-0.272335 0.06258,-0.04581 0.124545,-0.09275 0.186035,-0.140043 0.11734,-0.09039 0.232606,-0.183432 0.345716,-0.279053 0.0634,-0.05352 0.126032,-0.107638 0.188102,-0.162781 0.11457,-0.101567 0.226733,-0.205811 0.336413,-0.312642 0.0382,-0.03727 0.0771,-0.07371 0.114722,-0.111621 0.007,-0.0067 0.01304,-0.01391 0.01964,-0.02067 0.11788,-0.120182 0.232635,-0.243385 0.344165,-0.369486 0.0426,-0.04795 0.0859,-0.09534 0.127641,-0.144177 10e-4,-0.0016 0.0026,-0.0031 0.0036,-0.0047 0.10713,-0.126361 0.211029,-0.255422 0.311609,-0.387057 0.0427,-0.05553 0.0856,-0.110898 0.127124,-0.167431 0.0982,-0.133822 0.192961,-0.27012 0.284221,-0.408761 0.0389,-0.05899 0.0776,-0.118333 0.115238,-0.178284 0.0863,-0.137785 0.169204,-0.277699 0.248564,-0.419612 0.039,-0.06951 0.0773,-0.139678 0.114721,-0.210323 0.0734,-0.137999 0.143573,-0.277738 0.210323,-0.419096 0.0373,-0.0795 0.07269,-0.160539 0.108004,-0.241329 0.0563,-0.128199 0.109924,-0.257592 0.160714,-0.38809 0.006,-0.01677 0.01324,-0.0333 0.01964,-0.05013 -5.953476,4.397604 -10.980725,4.031795 -10.980725,4.031795 3.878781,-1.152057 8.85147,-3.731915 11.609627,-7.106543 0.008,-0.135622 0.01247,-0.271388 0.01447,-0.40721 6e-5,-0.07769 -3.63e-4,-0.155387 -0.0026,-0.233061 -0.002,-0.07755 -0.0053,-0.155065 -0.0083,-0.232544 -0.004,-0.07757 -0.0079,-0.155087 -0.01395,-0.232544 -0.005,-0.07759 -0.01182,-0.155108 -0.01912,-0.232544 -0.007,-0.07727 -0.0156,-0.154441 -0.0248,-0.23151 -0.009,-0.07712 -0.01939,-0.15412 -0.03049,-0.230994 -0.0111,-0.07679 -0.02317,-0.153453 -0.03617,-0.22996 -0.0129,-0.07664 -0.02674,-0.153129 -0.04134,-0.229443 -0.0146,-0.07632 -0.03011,-0.152461 -0.04651,-0.22841 -0.0165,-0.07582 -0.03389,-0.15145 -0.05219,-0.22686 -0.006,-0.02312 -0.01203,-0.04618 -0.01809,-0.06925 z"
       id="path1980" /><path
       style="opacity:1;fill:#002356;fill-opacity:1;stroke:none;stroke-width:0.264583"
       d="m 63.181156,74.527234 c -3.28665,0.0017 -6.353066,1.652759 -8.163842,4.395597 l 10e-4,0.0031 c -0.272855,0.412815 -0.514014,0.845727 -0.721403,1.295011 l -0.0062,0.01189 c -0.08472,0.182009 -0.163824,0.366581 -0.237195,0.553454 0.01623,0.07807 0.03344,0.154562 0.05116,0.230477 h -5.17e-4 c 0.009,0.03838 0.01857,0.07585 0.0279,0.113688 0.0043,0.01752 0.0085,0.0353 0.01292,0.05271 0.01184,0.04681 0.02428,0.09304 0.03669,0.13901 0.0045,0.01648 0.0089,0.03323 0.01344,0.04961 0.01207,0.04367 0.02411,0.08679 0.03669,0.129708 0.005,0.01703 0.0099,0.03424 0.01499,0.05116 0.01255,0.04184 0.02572,0.0829 0.03876,0.124023 0.0064,0.02012 0.01262,0.04051 0.01912,0.06046 0.0073,0.02227 0.01483,0.04409 0.02222,0.06615 0.01241,0.03701 0.0244,0.07417 0.03721,0.110587 0.01659,0.04717 0.03391,0.09336 0.05116,0.139526 0.002,0.0055 0.0041,0.01107 0.0062,0.01654 0.01206,0.03205 0.02432,0.06352 0.03669,0.09509 0.01069,0.02727 0.02112,0.05474 0.03204,0.08165 6.93e-4,0.0017 0.0014,0.0035 0.0021,0.0052 0.01967,0.04836 0.04006,0.09645 0.06046,0.14366 0.02284,0.05285 0.04601,0.105139 0.06976,0.15658 0.02385,0.05165 0.04811,0.102713 0.07286,0.152962 0.0019,0.0039 0.0038,0.008 0.0057,0.01189 0.02281,0.04609 0.04621,0.09151 0.06976,0.136426 0.02557,0.04876 0.0516,0.09678 0.07803,0.144177 0.0016,0.0029 0.003,0.0059 0.0047,0.0088 0.02486,0.04442 0.05036,0.08803 0.07597,0.131258 0.02303,0.03889 0.04667,0.07679 0.07028,0.114722 0.0053,0.0085 0.01019,0.01739 0.0155,0.02584 0.009,0.01429 0.01831,0.02822 0.02739,0.04238 0.01895,0.02956 0.03753,0.05939 0.05684,0.08837 4.72e-4,7.1e-4 10e-4,0.0014 0.0015,0.0021 0.02789,0.04181 0.05613,0.08291 0.08475,0.123507 7.14e-4,10e-4 0.0014,0.0021 0.0021,0.0031 0.05865,0.08308 0.119273,0.163732 0.180867,0.241845 2.32e-4,2.95e-4 2.84e-4,7.73e-4 5.17e-4,10e-4 0.06183,0.07839 0.124996,0.154382 0.189653,0.227893 3.2e-4,3.63e-4 7.47e-4,7.03e-4 10e-4,10e-4 0.03201,0.03638 0.06447,0.07228 0.09715,0.107487 6.58e-4,7.09e-4 0.0014,0.0014 0.0021,0.0021 0.03319,0.03572 0.0664,0.07089 0.100252,0.10542 0.0022,0.0023 0.0045,0.0045 0.0067,0.0067 0.03064,0.03114 0.06184,0.0618 0.09302,0.09198 0.0013,0.0013 0.0028,0.0024 0.0041,0.0036 0.03478,0.03361 0.06949,0.06627 0.104903,0.0987 0.03316,0.03036 0.06656,0.06058 0.100252,0.08992 0.01869,0.01628 0.03747,0.03209 0.05633,0.04806 0.01704,0.01443 0.03399,0.02923 0.05116,0.04341 0.0024,0.0019 0.0049,0.0037 0.0072,0.0057 0.06994,0.05754 0.140879,0.112939 0.212907,0.166399 0.0033,0.0024 0.0066,0.0048 0.0098,0.0072 0.006,0.0044 0.0121,0.0085 0.01809,0.01292 0.03166,0.02319 0.06356,0.04631 0.0956,0.06873 0.03825,0.02677 0.07646,0.05285 0.115238,0.07855 0.03827,0.02537 0.07699,0.05008 0.115755,0.07441 0.01422,0.0089 0.0286,0.01756 0.04289,0.02635 0.02132,0.01312 0.04262,0.02646 0.06408,0.03927 0.02942,0.01757 0.05869,0.03467 0.08837,0.05168 0.01118,0.0064 0.02237,0.01279 0.03359,0.01912 0.01423,0.008 0.0286,0.01587 0.04289,0.02377 0.02933,0.01622 0.0588,0.03237 0.08837,0.04806 0.04062,0.02155 0.08143,0.04249 0.122473,0.06305 0.03706,0.01856 0.07423,0.03701 0.111621,0.05478 0.075,0.03564 0.150595,0.06928 0.22686,0.101802 0.0073,0.0031 0.01439,0.0067 0.0217,0.0098 0.06098,0.02573 0.122776,0.04958 0.184485,0.07338 0.0516,0.0199 0.103473,0.03878 0.155546,0.05736 0.03334,0.0119 0.06673,0.02377 0.100252,0.03514 0.04787,0.01624 0.09595,0.03185 0.144177,0.04703 0.04435,0.01396 0.08869,0.02774 0.133325,0.04082 0.03694,0.01083 0.07398,0.02129 0.111105,0.03152 0.04901,0.01352 0.09798,0.02677 0.147278,0.03927 0.04378,0.01111 0.08778,0.02171 0.131774,0.03204 0.04365,0.01025 0.08742,0.01996 0.131259,0.02946 0.04795,0.01038 0.09603,0.01995 0.144177,0.02945 0.04063,0.008 0.0812,0.01586 0.121956,0.02325 0.04421,0.008 0.08846,0.01593 0.132809,0.02325 0.04847,0.008 0.09712,0.01556 0.145727,0.02274 0.04094,0.006 0.08197,0.01158 0.12299,0.01705 0.04821,0.0064 0.09639,0.01294 0.144694,0.0186 0.04272,0.005 0.08538,0.0095 0.128158,0.01395 0.05044,0.0052 0.100913,0.01006 0.151412,0.01447 0.03534,0.0031 0.07058,0.0061 0.105936,0.0088 0.05443,0.0042 0.108859,0.0081 0.163298,0.01137 0.04585,0.0028 0.09163,0.0051 0.137459,0.0072 0.04032,0.0019 0.08062,0.0037 0.120923,0.0052 0.05535,0.002 0.110606,0.003 0.165881,0.0041 0.03447,7.04e-4 0.06892,0.0017 0.103353,0.0021 0.05549,6.21e-4 0.111034,6.95e-4 0.166398,5.16e-4 0.03774,-1.2e-4 0.07551,-5.85e-4 0.113172,-0.001 0.0492,-6.29e-4 0.09822,-0.0014 0.147278,-0.0026 0.04019,-10e-4 0.08032,-0.0022 0.120406,-0.0036 0.04889,-0.0017 0.09755,-0.0039 0.146244,-0.0062 0.04176,-0.0019 0.08346,-0.0034 0.125057,-0.0057 0.05277,-0.003 0.105123,-0.0068 0.157613,-0.01033 0.03342,-0.0023 0.06696,-0.0042 0.100252,-0.0067 0.0444,-0.0033 0.08864,-0.0071 0.132809,-0.01085 0.05234,-0.0045 0.104593,-0.009 0.156579,-0.01395 0.0055,-5.31e-4 0.01102,-9.5e-4 0.01654,-0.0016 0.02201,-0.0021 0.04369,-0.0045 0.06563,-0.0067 0.05333,-0.0054 0.106789,-0.01108 0.15968,-0.01705 0.05635,-0.0064 0.112126,-0.01321 0.167948,-0.02015 0.01963,-0.0024 0.03935,-0.0047 0.05891,-0.0072 0.0055,-7.12e-4 0.011,-0.0013 0.01654,-0.0021 0.06094,-0.0079 0.121158,-0.01629 0.181384,-0.0248 0.01877,-0.0027 0.03763,-0.005 0.05633,-0.0078 0.0059,-8.57e-4 0.01167,-0.0017 0.01757,-0.0026 0.05676,-0.0083 0.112933,-0.01703 0.168982,-0.02584 0.02099,-0.0033 0.04216,-0.0065 0.06305,-0.0098 0.0073,-0.0012 0.01441,-0.0024 0.0217,-0.0036 0.06054,-0.0098 0.120219,-0.02013 0.179834,-0.03049 0.01443,-0.0025 0.02904,-0.0047 0.04341,-0.0072 0.003,-5.22e-4 0.0058,-0.0011 0.0088,-0.0015 0.05165,-0.0091 0.102586,-0.01894 0.153479,-0.02842 0.03948,-0.0074 0.07882,-0.01468 0.117822,-0.02222 0.0022,-4.33e-4 0.0045,-6.32e-4 0.0067,-0.001 0.0019,-3.76e-4 0.0037,-6.92e-4 0.0057,-10e-4 0.144019,-0.02797 0.284761,-0.0573 0.421679,-0.08733 0.112612,-0.0247 0.220395,-0.05037 0.327629,-0.07596 0.03039,-0.0073 0.06257,-0.01389 0.0925,-0.02119 0.003,-7.38e-4 0.0058,-0.0013 0.0088,-0.0021 0.136855,-0.03345 0.268796,-0.06745 0.395324,-0.101286 0.129075,-0.03452 0.252347,-0.06895 0.369487,-0.102836 0.110095,-0.03184 0.213602,-0.06264 0.312126,-0.09302 0.0064,-0.002 0.01378,-0.0042 0.02015,-0.0062 0.0061,-0.0019 0.01103,-0.0033 0.01705,-0.0052 0.09791,-0.03041 0.188891,-0.05993 0.273885,-0.08785 0.0045,-0.0015 0.0079,-0.0027 0.0124,-0.0041 0.0043,-0.0014 0.0076,-0.0027 0.01189,-0.0041 0.08304,-0.02743 0.160756,-0.05351 0.22996,-0.07752 0.144138,-0.05 0.257971,-0.09163 0.33538,-0.120923 0.0014,-5.3e-4 6.57e-4,-5.44e-4 0.0021,-0.001 0.07759,-0.02938 0.118856,-0.04599 0.118856,-0.04599 0,0 -0.03315,0.02056 -0.09612,0.05788 -0.05568,0.033 -0.143382,0.08351 -0.243913,0.139527 -0.02682,0.01493 -0.05289,0.02918 -0.08268,0.04547 -0.01212,0.0066 -0.02098,0.01176 -0.03359,0.0186 -0.01472,0.008 -0.02958,0.01549 -0.04496,0.02377 -0.03728,0.02007 -0.07779,0.04195 -0.118856,0.06356 -0.04255,0.02238 -0.08737,0.04591 -0.133841,0.06976 -0.06062,0.03111 -0.124179,0.06288 -0.191203,0.09612 -0.01556,0.0077 -0.02854,0.0144 -0.04444,0.02222 -0.0068,0.0034 -0.01326,0.0064 -0.02015,0.0098 -0.06481,0.03177 -0.135543,0.06552 -0.205672,0.0987 -0.05041,0.02385 -0.0994,0.04689 -0.152445,0.07131 -0.06969,0.03209 -0.143497,0.06483 -0.217558,0.09767 -0.03692,0.01637 -0.07055,0.03208 -0.108521,0.04858 -0.0037,0.0016 -0.0071,0.003 -0.01085,0.0047 -0.114516,0.04967 -0.234589,0.09968 -0.358117,0.149862 -0.01313,0.0053 -0.02502,0.01069 -0.03824,0.01602 -3.69e-4,1.49e-4 -6.97e-4,3.68e-4 -0.001,5.17e-4 -0.12252,0.04938 -0.249302,0.09843 -0.379821,0.147278 -0.0051,0.0019 -0.0098,0.0038 -0.01499,0.0057 -0.0047,0.0018 -0.0093,0.0034 -0.01395,0.0052 -0.03979,0.0148 -0.08045,0.02975 -0.120923,0.04444 -0.02434,0.0088 -0.04827,0.01757 -0.07286,0.02636 -0.0081,0.0029 -0.01619,0.0059 -0.02429,0.0088 -0.04965,0.01765 -0.09977,0.03529 -0.150378,0.05271 -0.01303,0.0045 -0.02567,0.009 -0.03876,0.01344 -0.0076,0.0026 -0.01512,0.0052 -0.02274,0.0078 -0.0583,0.01979 -0.117234,0.03899 -0.176733,0.05839 -0.0066,0.0022 -0.01299,0.0046 -0.01964,0.0067 -0.0064,0.0021 -0.01273,0.0041 -0.01912,0.0062 -0.05589,0.01805 -0.112611,0.03611 -0.169498,0.05374 -0.03522,0.01092 -0.07086,0.0213 -0.106454,0.03204 -0.04327,0.01306 -0.08642,0.02598 -0.130225,0.03876 -0.03282,0.0096 -0.06611,0.01902 -0.09922,0.02842 -0.05161,0.01465 -0.103252,0.0292 -0.155546,0.04341 -0.003,8.05e-4 -0.0058,0.0018 -0.0088,0.0026 -0.0094,0.0025 -0.019,0.0047 -0.02842,0.0072 -0.191741,0.05152 -0.388154,0.09994 -0.588078,0.144178 -0.04595,0.01017 -0.09164,0.02077 -0.137976,0.03049 -0.0019,3.97e-4 -0.0038,6.7e-4 -0.0057,0.001 -0.07312,0.01531 -0.146625,0.02979 -0.220658,0.04393 -0.0055,0.0011 -0.011,0.0021 -0.01654,0.0031 -0.05697,0.01079 -0.114608,0.02097 -0.172082,0.03101 -0.0298,0.0052 -0.05947,0.01051 -0.0894,0.0155 -0.052,0.0087 -0.104207,0.01677 -0.15658,0.0248 -0.04639,0.0071 -0.09286,0.0141 -0.139526,0.02067 -0.04449,0.0063 -0.08911,0.01181 -0.133842,0.01757 -0.04264,0.0055 -0.08531,0.011 -0.128158,0.01602 -0.04795,0.0056 -0.09598,0.01102 -0.144177,0.01602 -0.04381,0.0045 -0.08778,0.0089 -0.131775,0.01292 -0.05378,0.0049 -0.107706,0.0093 -0.161747,0.01344 -0.03741,0.0028 -0.07512,0.0053 -0.112655,0.0078 -0.05398,0.0035 -0.108056,0.0072 -0.162264,0.0098 -0.0337,0.0016 -0.0675,0.0023 -0.101286,0.0036 -0.06263,0.0024 -0.125217,0.005 -0.188102,0.0062 -0.09001,0.0018 -0.180328,0.0024 -0.270784,0.0016 -10e-4,-9e-6 -0.0021,1e-5 -0.0031,0 -0.0083,-7.7e-5 -0.01654,-4.17e-4 -0.0248,-5.17e-4 -0.08907,-0.0011 -0.178282,-0.0035 -0.267683,-0.0072 -0.02408,-9.97e-4 -0.04825,-0.0024 -0.07235,-0.0036 -0.06972,-0.0035 -0.139433,-0.0073 -0.20929,-0.0124 -0.03721,-0.0027 -0.07438,-0.0066 -0.111621,-0.0098 -0.06108,-0.0053 -0.12231,-0.01093 -0.183451,-0.01757 -0.03735,-0.0041 -0.07477,-0.0083 -0.112138,-0.01292 -0.05773,-0.0071 -0.115373,-0.01493 -0.173116,-0.02325 -0.0467,-0.0067 -0.09335,-0.01413 -0.140043,-0.0217 -0.04495,-0.0073 -0.08994,-0.01465 -0.134876,-0.02274 -0.06323,-0.01138 -0.126479,-0.02318 -0.189652,-0.03617 -0.0098,-0.002 -0.01966,-0.0036 -0.02946,-0.0057 -0.0836,-0.01753 -0.167207,-0.03638 -0.250631,-0.05684 -0.0066,-0.0016 -0.01306,-0.0035 -0.01964,-0.0052 -0.08321,-0.02065 -0.166118,-0.04299 -0.24908,-0.06666 -0.01065,-0.003 -0.02139,-0.0057 -0.03204,-0.0088 -0.07615,-0.0221 -0.152012,-0.04554 -0.227893,-0.07028 -0.0035,-0.0011 -0.0069,-0.0025 -0.01034,-0.0036 -0.0136,-0.0045 -0.02723,-0.0089 -0.04082,-0.01344 -0.167374,-0.05597 -0.334164,-0.118573 -0.499711,-0.188102 -0.01017,-0.0043 -0.02032,-0.0086 -0.03049,-0.01292 -0.01518,-0.0065 -0.03033,-0.01306 -0.04548,-0.01964 -0.03574,-0.01551 -0.07134,-0.03137 -0.10697,-0.04754 -0.02101,-0.0095 -0.04207,-0.01917 -0.06304,-0.02894 -0.01621,-0.0076 -0.03239,-0.01505 -0.04858,-0.02274 -0.02977,-0.01414 -0.05972,-0.02827 -0.0894,-0.04289 -0.02246,-0.01106 -0.04477,-0.02225 -0.06718,-0.03359 -0.02598,-0.01314 -0.05161,-0.02679 -0.07751,-0.04031 -0.01411,-0.0074 -0.02829,-0.01475 -0.04237,-0.02222 -0.03023,-0.01604 -0.06081,-0.03202 -0.09095,-0.04858 -0.04044,-0.02222 -0.08067,-0.04505 -0.120923,-0.06821 -0.03489,-0.02008 -0.06964,-0.04069 -0.104387,-0.0615 -0.01672,-0.01001 -0.03344,-0.01979 -0.05013,-0.02997 -0.04462,-0.02722 -0.08948,-0.05529 -0.133842,-0.08372 -0.01688,-0.01082 -0.03381,-0.02208 -0.05064,-0.03307 -0.02661,-0.01737 -0.05307,-0.03489 -0.07958,-0.05271 -0.04072,-0.02738 -0.08148,-0.05527 -0.121957,-0.08372 -0.0302,-0.02122 -0.06037,-0.04277 -0.09043,-0.06459 -0.02114,-0.01535 -0.04198,-0.03086 -0.06304,-0.04651 -0.01792,-0.01331 -0.03588,-0.02678 -0.05374,-0.04031 -0.02486,-0.01882 -0.04966,-0.03812 -0.07441,-0.05736 -0.02455,-0.01908 -0.04894,-0.03838 -0.07338,-0.05788 -0.01596,-0.01274 -0.03213,-0.02532 -0.04806,-0.03824 -0.02697,-0.02188 -0.05378,-0.04426 -0.08062,-0.06666 -0.01935,-0.01615 -0.0386,-0.03267 -0.05788,-0.04909 -0.02182,-0.01859 -0.04391,-0.03687 -0.06563,-0.05581 -0.03975,-0.03466 -0.07942,-0.07009 -0.118856,-0.105937 -0.04354,-0.03958 -0.08708,-0.07987 -0.130224,-0.120923 -0.002,-0.0019 -0.0042,-0.0037 -0.0062,-0.0057 -0.04375,-0.04171 -0.08741,-0.08439 -0.130742,-0.127641 -0.0051,-0.0051 -0.0099,-0.01043 -0.01499,-0.0155 -0.03962,-0.03976 -0.07909,-0.07985 -0.118339,-0.120923 -0.0019,-0.002 -0.0038,-0.0042 -0.0057,-0.0062 -0.04004,-0.04198 -0.07973,-0.08429 -0.119373,-0.127641 -0.01245,-0.01362 -0.02479,-0.02759 -0.03721,-0.04134 -0.0238,-0.02637 -0.04766,-0.0527 -0.07131,-0.07958 -0.02114,-0.02402 -0.04203,-0.04844 -0.06305,-0.07286 -0.02497,-0.02902 -0.05014,-0.05825 -0.07493,-0.08785 -0.01199,-0.01431 -0.02371,-0.02896 -0.03566,-0.04341 -0.02956,-0.03575 -0.05906,-0.07193 -0.08837,-0.108521 -0.01141,-0.01424 -0.02274,-0.02852 -0.03411,-0.04289 -0.02966,-0.03749 -0.05949,-0.07532 -0.08888,-0.113689 -0.01084,-0.01415 -0.02175,-0.02811 -0.03256,-0.04237 -0.03809,-0.05031 -0.07556,-0.101152 -0.113171,-0.152962 -0.0068,-0.0093 -0.01339,-0.01904 -0.02015,-0.02842 -0.522706,-0.725442 -0.999143,-1.597354 -1.4118,-2.640148 0,0 0.164375,2.230068 1.450557,4.250903 v 5.17e-4 l 5.17e-4,5.16e-4 v 5.17e-4 c 0.0017,0.0026 0.0035,0.0051 0.0052,0.0078 0.03253,0.05096 0.06577,0.1018 0.09974,0.152445 0.03046,0.0454 0.06138,0.09082 0.09302,0.135909 0.01199,0.01709 0.02401,0.03413 0.03617,0.05116 0.03091,0.0433 0.06253,0.08625 0.09457,0.129191 0.03904,0.05233 0.07862,0.104347 0.119372,0.156063 0.04001,0.05078 0.08078,0.101311 0.122474,0.151412 0.0036,0.0043 0.0073,0.0086 0.01085,0.01292 0.0397,0.04749 0.08019,0.09428 0.121439,0.141076 0.04428,0.05022 0.0893,0.100008 0.135393,0.149345 0.046,0.04925 0.09271,0.09796 0.140559,0.146245 0.04781,0.04823 0.09656,0.09597 0.146245,0.143143 0.04205,0.03991 0.08526,0.07925 0.128674,0.118339 0.0098,0.0088 0.01908,0.0181 0.02894,0.02687 0.036,0.03203 0.07312,0.06314 0.110071,0.09457 0.01914,0.01629 0.03796,0.03297 0.05736,0.04909 0.03685,0.03062 0.07487,0.06044 0.112655,0.09043 0.01758,0.01396 0.03493,0.02804 0.05271,0.04186 0.03929,0.03052 0.07908,0.06062 0.119373,0.09043 0.02008,0.01486 0.04013,0.02976 0.06046,0.04444 0.03798,0.02741 0.07637,0.05437 0.115238,0.08113 0.02537,0.01748 0.05125,0.03449 0.077,0.05168 0.03239,0.02161 0.06467,0.04345 0.09767,0.0646 0.03542,0.0227 0.07137,0.04503 0.107487,0.06718 0.02947,0.01806 0.05894,0.03606 0.08888,0.05374 0.03958,0.02338 0.07999,0.04603 0.120406,0.06873 0.02561,0.01438 0.05105,0.0288 0.077,0.04289 0.04388,0.02384 0.08847,0.04726 0.133325,0.07028 0.02788,0.0143 0.05546,0.02892 0.08372,0.04289 0.03204,0.01585 0.06514,0.03058 0.09767,0.04599 0.04191,0.01985 0.08336,0.04031 0.12609,0.05943 0.02209,0.0099 0.04487,0.01926 0.06718,0.02894 0.04935,0.02143 0.09838,0.04261 0.148828,0.06305 0.0048,0.0019 0.0097,0.0038 0.01447,0.0057 0.07258,0.02919 0.146303,0.05718 0.221175,0.08423 0.02481,0.009 0.05038,0.01712 0.07545,0.02584 0.05148,0.01792 0.102989,0.03584 0.155546,0.05271 0.04118,0.01322 0.08321,0.02568 0.125057,0.03824 0.04067,0.01221 0.08117,0.02459 0.122473,0.03617 0.04305,0.01207 0.08699,0.02325 0.130741,0.03462 0.0423,0.011 0.08468,0.02223 0.127641,0.03256 0.03909,0.0094 0.0787,0.01803 0.118339,0.02687 0.04875,0.01087 0.09769,0.02152 0.147278,0.03152 0.04591,0.0093 0.09238,0.01785 0.13901,0.02635 0.03953,0.0072 0.07933,0.01402 0.119372,0.02067 0.04808,0.008 0.09637,0.01607 0.145211,0.02325 0.05119,0.0075 0.103003,0.01405 0.155029,0.02067 0.04273,0.0054 0.08538,0.01121 0.128675,0.01602 0.04981,0.0055 0.100329,0.01029 0.150895,0.01499 0.04773,0.0044 0.09525,0.0087 0.14366,0.0124 0.05147,0.0039 0.103825,0.0068 0.156063,0.0098 0.04794,0.0028 0.09558,0.0062 0.144177,0.0083 0.08035,0.0034 0.162263,0.0049 0.24443,0.0062 0.01768,2.76e-4 0.03495,0.0015 0.05271,0.0016 0.107417,0.0011 0.216058,5.27e-4 0.326595,-0.0021 0.07214,-0.0017 0.144277,-0.0045 0.216524,-0.0083 0.03616,-0.0019 0.07234,-0.0048 0.108521,-0.0072 0.04269,-0.0029 0.08543,-0.0057 0.128157,-0.0093 0.0031,-2.6e-4 0.0062,-2.53e-4 0.0093,-5.17e-4 0.0626,-0.0054 0.125444,-0.01171 0.188102,-0.0186 0.0036,-3.98e-4 0.0072,-0.0012 0.01085,-0.0016 0.04372,-0.0049 0.08751,-0.01042 0.131258,-0.01602 0.03582,-0.0046 0.07166,-0.0089 0.107487,-0.01395 0.02894,-0.0041 0.05786,-0.0085 0.08682,-0.01292 0.04639,-0.0071 0.09261,-0.01436 0.139009,-0.02222 0.03462,-0.0059 0.06924,-0.0123 0.10387,-0.0186 0.03683,-0.0067 0.07376,-0.01349 0.110588,-0.02067 0.0432,-0.0084 0.0865,-0.01727 0.129707,-0.02636 0.03223,-0.0068 0.06441,-0.01353 0.09663,-0.02067 0.03567,-0.0079 0.0713,-0.01646 0.10697,-0.02481 0.04839,-0.01131 0.09682,-0.02303 0.145211,-0.03514 0.02303,-0.0058 0.04621,-0.01111 0.06925,-0.01705 0.04929,-0.01272 0.09851,-0.02627 0.147794,-0.03979 0.03186,-0.0087 0.06374,-0.01729 0.0956,-0.02636 0.03398,-0.0097 0.06783,-0.01993 0.101802,-0.02997 0.04703,-0.01391 0.09406,-0.02775 0.141077,-0.04237 0.0057,-0.0018 0.0114,-0.0034 0.01705,-0.0052 0.01757,-0.0055 0.03514,-0.01147 0.05271,-0.01705 0.04712,-0.01499 0.09448,-0.0298 0.141594,-0.04547 0.03066,-0.0102 0.06133,-0.02103 0.09198,-0.03152 0.04707,-0.01611 0.09403,-0.03232 0.141076,-0.04909 0.0026,-9.13e-4 0.0052,-0.0017 0.0078,-0.0026 0.06345,-0.02267 0.126778,-0.04592 0.190169,-0.06976 0.05204,-0.01957 0.104071,-0.04012 0.156063,-0.06046 0.02507,-0.0098 0.05039,-0.01895 0.07545,-0.02894 0.0041,-0.0017 0.0083,-0.0035 0.0124,-0.0052 0.0095,-0.0038 0.01897,-0.0076 0.02842,-0.01137 0.140716,-0.05663 0.280882,-0.115793 0.421163,-0.177767 0.07687,-0.03396 0.153766,-0.06891 0.230477,-0.104386 0.07202,-0.03331 0.144143,-0.0672 0.216007,-0.101803 0.0046,-0.0022 0.0093,-0.0045 0.01395,-0.0067 0.01411,-0.0068 0.02827,-0.01381 0.04237,-0.02067 0.05967,-0.02902 0.119244,-0.05849 0.178801,-0.08837 0.0028,-0.0014 0.0055,-0.0028 0.0083,-0.0041 0.0067,-0.0034 0.01341,-0.0069 0.02015,-0.01034 0.06142,-0.03096 0.122683,-0.06222 0.183968,-0.09405 0.0081,-0.0042 0.01622,-0.0082 0.02429,-0.0124 0.04631,-0.02415 0.09278,-0.04875 0.139009,-0.07338 0.0067,-0.0036 0.01344,-0.0073 0.02015,-0.01085 0.04722,-0.02523 0.09446,-0.05076 0.141594,-0.07648 0.0381,-0.02079 0.07616,-0.04194 0.114205,-0.06305 0.01352,-0.0075 0.02731,-0.01468 0.04082,-0.02222 0.01103,-0.0062 0.02205,-0.01242 0.03307,-0.0186 0.04438,-0.02488 0.08852,-0.05068 0.132808,-0.07597 0.103074,-0.05883 0.205944,-0.118386 0.308509,-0.179317 0.121431,-0.07213 0.242118,-0.146332 0.362768,-0.221175 0.02124,-0.01318 0.04286,-0.0255 0.06408,-0.03876 0.004,-0.0025 0.0079,-0.0053 0.01189,-0.0078 0.14125,-0.08838 0.282153,-0.178603 0.422196,-0.270268 0.0038,-0.0025 0.0076,-0.0048 0.01137,-0.0072 3.99e-4,-2.62e-4 6.68e-4,-8.06e-4 0.001,-0.001 0.145728,-0.09551 0.290824,-0.191792 0.435116,-0.290421 0.0017,-0.0012 0.0034,-0.0024 0.0052,-0.0036 0.146167,-0.09995 0.291593,-0.201674 0.436149,-0.304374 0.144756,-0.102842 0.288497,-0.206998 0.431498,-0.312126 0.132097,-0.09711 0.263287,-0.194838 0.393774,-0.293522 0.05545,-0.04193 0.11022,-0.08443 0.165365,-0.126607 0.07968,-0.06093 0.159205,-0.122093 0.238228,-0.183451 0.04689,-0.03641 0.09339,-0.07302 0.140043,-0.109554 0.09516,-0.07452 0.190091,-0.14883 0.284221,-0.223759 0.03856,-0.03069 0.07686,-0.06124 0.115238,-0.09198 0.100519,-0.08052 0.200504,-0.161099 0.299723,-0.241846 0.01,-0.0081 0.01999,-0.01616 0.02997,-0.02429 0.01336,-0.01088 0.02645,-0.02167 0.03979,-0.03256 0.10644,-0.08688 0.212383,-0.173585 0.317293,-0.260449 0.01434,-0.01187 0.02858,-0.02378 0.04289,-0.03566 0.02225,-0.01846 0.04397,-0.03685 0.06615,-0.05529 0.06206,-0.05162 0.123512,-0.102988 0.185002,-0.154512 0.2043,-0.171181 0.404867,-0.341091 0.602547,-0.510047 0.1396,-0.119312 0.274748,-0.236013 0.410828,-0.353467 0.11034,-0.09525 0.221775,-0.190563 0.329695,-0.28422 0.0034,-0.0029 0.0064,-0.0058 0.0098,-0.0088 0.2325,-0.201787 0.441555,-0.383324 0.661975,-0.575159 h 5.17e-4 c 0.20671,-0.179903 0.425324,-0.371094 0.620634,-0.539502 v -5.16e-4 l 1.353413,-1.352903 c 0,0 -1.161023,1.05936 -1.430928,1.154465 -1.425309,-3.830921 -5.080958,-6.372896 -9.168433,-6.375321 z"
       id="path973" /><path
       id="path1969"
       style="opacity:1;fill:#002356;fill-opacity:1;stroke:none;stroke-width:0.264583"
       d="m 77.343478,76.046025 c -0.14747,0.0021 -0.30688,0.08819 -0.39377,0.123507 -0.111237,0.04519 -0.719452,0.79299 -0.823727,0.838194 -0.104283,0.0451 -0.69194,0.05168 -0.69194,0.05168 0,0 0.0037,-0.01348 0.107999,-0.142111 0.104301,-0.128569 0.05426,-0.195339 0.05426,-0.195339 0,0 -0.193233,-0.117912 -0.294041,-0.170014 -0.100807,-0.05214 -0.253732,0.351397 -0.253732,0.351397 0,0 -0.285523,-0.01453 -0.393714,-0.08326 -0.108103,-0.06867 -1.204249,-0.142225 -1.489378,-0.132221 -0.28507,0.0098 -0.196709,0.08828 -0.206707,0.147281 -0.0098,0.05899 1.366961,0.422688 1.480021,0.461988 0.11307,0.03932 0.80615,0.496609 0.80615,0.496609 0,0 -0.08377,0.09838 -0.427879,0.526068 -0.34411,0.42769 -0.540398,0.486446 -0.628902,0.491441 -0.08848,0.0049 -1.01289,-0.245775 -1.18494,-0.221175 -0.172101,0.02459 -0.0491,0.11834 -0.0491,0.11834 l 1.1157,0.751375 0.75189,1.116212 c 0,0 0.09323,0.122448 0.117819,-0.04961 0.0246,-0.172059 -0.22608,-1.095937 -0.22117,-1.184423 0.005,-0.0885 0.06375,-0.285306 0.491437,-0.629422 0.427691,-0.344111 0.526073,-0.427361 0.526073,-0.427361 0,0 0.45729,0.693087 0.49661,0.806152 0.0393,0.113066 0.40299,1.489328 0.46198,1.479496 0.059,-0.0098 0.137967,0.07841 0.147802,-0.206704 0.01,-0.285123 -0.06414,-1.381228 -0.132762,-1.489379 -0.0688,-0.108146 -0.08275,-0.39319 -0.08275,-0.39319 0,0 0.40302,-0.152926 0.350877,-0.253735 -0.0521,-0.100805 -0.169501,-0.294036 -0.169501,-0.294036 0,0 -0.06676,-0.05003 -0.195329,0.05426 -0.128621,0.104282 -0.14263,0.107486 -0.14263,0.107486 0,0 0.0071,-0.587668 0.05219,-0.691947 0.0452,-0.104285 0.79249,-0.712488 0.837701,-0.823701 0.0452,-0.111232 0.173571,-0.340569 0.102321,-0.51263 -0.03764,-0.01559 -0.07757,-0.02177 -0.118858,-0.02119 z"
       sodipodi:nodetypes="ccccccccsccscscscccscscscccccccccsccc" /></g></svg>
